#!OML:ASF I:\Actors\actors\Patient Classification 2\Patient 1\Session 1\actor1.ASF
:FULLY-SPECIFIED
:DEGREES
781
root -1.37146 18.5152 6.36171 -4.8495 -2.25724 -4.26471
lowerback 12.1645 0.270806 2.103
upperback 3.13877 0.715556 2.40341
thorax -3.53593 0.342552 1.21253
lowerneck -8.34996 -1.00785 0.754555
upperneck 22.7809 -2.76209 5.28143
head 8.52397 -0.721759 1.37708
rclavicle -5.889e-015 -6.36111e-015
rhumerus 7.61845 -11.3829 -68.6812
rradius 121.067
rwrist -56.2481
rhand 4.18718 -19.6754
rfingers 7.12502
rthumb 29.5944 -47.3354
lclavicle -5.889e-015 -6.36111e-015
lhumerus 16.5157 5.93897 76.777
lradius 115.777
lwrist 69.6979
lhand -8.79242 -34.8749
lfingers 7.12502
lthumb 17.1463 -5.61143
rfemur 16.1165 4.05758 21.1241
rtibia -2.38542e-014
rfoot -18.9053 -12.9823
rtoes -13.9971
lfemur 0.39423 -1.06851 -7.72493
ltibia 26.8074
lfoot -21.1565 8.55311
ltoes -59.3009
782
root -1.36757 18.5215 6.39055 -4.28706 -2.09255 -4.38375
lowerback 11.5979 0.182453 2.2367
upperback 2.64575 0.613971 2.48582
thorax -3.7388 0.289708 1.23972
lowerneck -8.11653 -0.931344 0.610137
upperneck 21.3658 -2.65792 5.80755
head 8.00998 -0.671263 1.57516
rclavicle 4.17448e-015 2.16675e-014
rhumerus 8.15613 -11.8487 -68.7381
rradius 120.997
rwrist -58.7019
rhand 3.2621 -21.8243
rfingers 7.12502
rthumb 28.711 -49.6374
lclavicle 4.17448e-015 2.16675e-014
lhumerus 16.2087 6.17739 76.7775
lradius 115.416
lwrist 69.9484
lhand -9.39629 -34.4484
lfingers 7.12502
lthumb 16.5649 -5.13539
rfemur 15.6189 3.89218 21.2039
rtibia -2.22639e-014
rfoot -19.0589 -12.9177
rtoes -14.0148
lfemur -0.0751579 -1.29588 -7.61516
ltibia 26.674
lfoot -21.5368 8.44825
ltoes -59.3515
783
root -1.36125 18.5273 6.41588 -3.89434 -1.9278 -4.40974
lowerback 11.0886 0.0796226 2.27367
upperback 2.29671 0.475709 2.51784
thorax -3.82172 0.220064 1.27306
lowerneck -8.02591 -0.90563 0.557669
upperneck 20.1386 -2.62572 6.23804
head 7.5924 -0.652719 1.71767
rclavicle 4.34841e-015 -9.14409e-015
rhumerus 8.62199 -11.976 -68.7304
rradius 119.811
rwrist -57.8746
rhand 2.68586 -21.1655
rfingers 7.12502
rthumb 28.1603 -49.0706
lclavicle 4.34841e-015 -9.14409e-015
lhumerus 16.0701 6.4314 76.7773
lradius 114.965
lwrist 70.0852
lhand -9.50322 -34.3079
lfingers 7.12502
lthumb 16.462 -4.98637
rfemur 15.2906 3.73883 21.168
rtibia 1.74931e-014
rfoot -19.161 -12.8154
rtoes -13.7346
lfemur -0.397565 -1.55887 -7.63802
ltibia 26.5771
lfoot -21.6889 8.55234
ltoes -59.4354
784
root -1.35645 18.5327 6.43271 -3.66605 -1.83463 -4.37475
lowerback 10.8879 -0.0131268 2.16614
upperback 2.02029 0.343713 2.5505
thorax -3.99944 0.154753 1.38709
lowerneck -8.24932 -0.888224 0.563837
upperneck 19.2134 -2.59925 6.48433
head 7.33237 -0.637766 1.79023
rclavicle -1.29955e-014 7.15625e-015
rhumerus 8.85788 -12.2517 -68.5604
rradius 118.915
rwrist -57.6661
rhand 2.92711 -21.5067
rfingers 7.12502
rthumb 28.3909 -49.3736
lclavicle -1.29955e-014 7.15625e-015
lhumerus 15.859 6.66707 76.7697
lradius 114.628
lwrist 70.1034
lhand -9.36286 -33.9993
lfingers 7.12502
lthumb 16.5971 -4.68895
rfemur 15.0979 3.65913 21.0796
rtibia -9.54166e-015
rfoot -19.2093 -12.7543
rtoes -13.5338
lfemur -0.600196 -1.69235 -7.72236
ltibia 26.5389
lfoot -21.7157 8.68041
ltoes -59.5003
785
root -1.35338 18.5352 6.4466 -3.64843 -1.90483 -4.29146
lowerback 10.879 -0.0429353 1.97034
upperback 1.94015 0.286645 2.60772
thorax -4.07905 0.128808 1.56564
lowerneck -8.80521 -0.857285 0.512781
upperneck 18.3804 -2.53132 6.59761
head 7.16093 -0.610433 1.83263
rclavicle -4.87022e-015 2.18663e-014
rhumerus 9.08496 -12.4495 -68.32
rradius 118.466
rwrist -57.5803
rhand 3.47804 -21.3155
rfingers 7.12502
rthumb 28.9173 -49.0935
lclavicle -4.87022e-015 2.18663e-014
lhumerus 15.6769 6.86754 76.7527
lradius 114.396
lwrist 69.9755
lhand -9.04608 -33.6601
lfingers 7.12502
lthumb 16.9021 -4.3756
rfemur 15.1136 3.73995 20.9739
rtibia -4.77083e-015
rfoot -19.2453 -12.7496
rtoes -13.5338
lfemur -0.568595 -1.66121 -7.85567
ltibia 26.5699
lfoot -21.7381 8.74886
ltoes -59.413
786
root -1.35047 18.5355 6.45548 -3.72738 -2.25132 -4.40281
lowerback 11.0243 0.0229059 2.01615
upperback 1.9471 0.388707 2.70377
thorax -4.15402 0.178786 1.62612
lowerneck -9.51032 -0.839507 0.41228
upperneck 17.6409 -2.48014 6.70304
head 7.04799 -0.589501 1.88024
rclavicle -7.70291e-016 2.78299e-015
rhumerus 9.14712 -12.4826 -68.0251
rradius 118.306
rwrist -57.0757
rhand 3.73336 -20.2653
rfingers 7.12502
rthumb 29.1611 -48.0013
lclavicle -7.70291e-016 2.78299e-015
lhumerus 15.4622 6.93025 76.6415
lradius 114.158
lwrist 69.7649
lhand -8.68611 -33.2956
lfingers 7.12502
lthumb 17.2486 -4.04108
rfemur 15.2094 4.07279 21.134
rtibia 3.49861e-014
rfoot -19.2441 -12.7735
rtoes -13.4932
lfemur -0.379758 -1.47229 -7.75894
ltibia 26.661
lfoot -21.7801 8.78865
ltoes -59.2758
787
root -1.3481 18.5343 6.45447 -3.79884 -2.73251 -4.7909
lowerback 11.3202 0.105248 2.44421
upperback 1.86493 0.567777 2.79054
thorax -4.40316 0.260271 1.45052
lowerneck -10.0112 -0.80632 0.573639
upperneck 17.0374 -2.41542 6.59223
head 6.93755 -0.563795 1.81709
rclavicle -9.74045e-015 2.34566e-014
rhumerus 8.90306 -12.4506 -67.7946
rradius 118.226
rwrist -56.2917
rhand 4.39452 -19.5168
rfingers 7.12502
rthumb 29.7923 -47.1415
lclavicle -9.74045e-015 2.34566e-014
lhumerus 15.0196 6.78742 76.3197
lradius 113.828
lwrist 69.5471
lhand -8.5945 -33.0589
lfingers 7.12502
lthumb 17.3367 -3.81217
rfemur 15.2659 4.50982 21.6363
rtibia -5.88403e-014
rfoot -19.1896 -12.8435
rtoes -13.6029
lfemur -0.191561 -1.23155 -7.32665
ltibia 26.7522
lfoot -21.8418 8.91144
ltoes -59.2286
788
root -1.34534 18.5291 6.45753 -3.98807 -3.04478 -5.09189
lowerback 11.6229 0.138695 2.89905
upperback 1.78404 0.685326 2.79573
thorax -4.65142 0.309074 1.18251
lowerneck -10.3042 -0.748571 0.838639
upperneck 16.5425 -2.32696 6.41852
head 6.8232 -0.527018 1.7203
rclavicle -1.11319e-014 -6.36111e-015
rhumerus 8.49588 -12.4198 -67.6003
rradius 118.101
rwrist -55.6813
rhand 5.09564 -19.5004
rfingers 7.12502
rthumb 30.4612 -47.0031
lclavicle -1.11319e-014 -6.36111e-015
lhumerus 14.4499 6.48648 75.9071
lradius 113.356
lwrist 69.429
lhand -8.69324 -32.8582
lfingers 7.12502
lthumb 17.2417 -3.60308
rfemur 15.4746 4.78225 22.0332
rtibia 6.36111e-015
rfoot -19.1579 -12.9108
rtoes -13.9147
lfemur 0.112011 -1.12664 -6.99535
ltibia 26.7874
lfoot -21.9264 9.02064
ltoes -59.1104
789
root -1.3413 18.5204 6.47567 -4.36631 -3.0598 -4.95712
lowerback 11.7854 0.119601 2.94646
upperback 1.80807 0.668322 2.70536
thorax -4.71448 0.298792 1.06361
lowerneck -10.5502 -0.696569 0.952667
upperneck 16.1746 -2.25366 6.38601
head 6.74512 -0.492802 1.69438
rclavicle -6.13748e-015 7.95139e-015
rhumerus 8.06441 -12.3738 -67.3962
rradius 117.945
rwrist -55.3107
rhand 5.18436 -20.1795
rfingers 7.12502
rthumb 30.5458 -47.6665
lclavicle -6.13748e-015 7.95139e-015
lhumerus 13.8459 6.18459 75.6016
lradius 112.729
lwrist 69.4164
lhand -8.77449 -32.3094
lfingers 7.12502
lthumb 17.1635 -3.04744
rfemur 15.9486 4.79753 21.9136
rtibia 3.65764e-014
rfoot -19.1781 -12.8856
rtoes -14.1511
lfemur 0.596805 -1.15456 -7.17235
ltibia 26.7763
lfoot -21.9835 9.02692
ltoes -58.9876
